<?xml version="1.0" encoding="UTF-8"?>
<svg version="1.1" xmlns="http://www.w3.org/2000/svg" width="489" height="628">
<path d="M0 0 C44.18325003 1.55028947 99.32834605 52.35577012 130.625 80.84375 C132.17622694 82.25210078 133.73835873 83.64855835 135.3125 85.03125 C145.8454932 94.31691505 155.9600452 104.24763085 165 115 C165.85335938 115.96421875 166.70671875 116.9284375 167.5859375 117.921875 C200.98783475 155.79268481 225.76593679 201.71772272 237 251 C237.17934082 251.77230957 237.35868164 252.54461914 237.54345703 253.34033203 C245.18328479 287.44264166 239.47678644 331.03458748 221 361 C218.58534043 364.75892086 216.09487015 368.46440387 213.5637207 372.14575195 C210.0290465 377.31659263 206.94014432 382.59779066 204 388.125 C198.44594842 398.48270813 191.59840534 407.85236746 183.78125 416.62109375 C180.04701829 420.94478157 178.60436684 425.57754862 177 431 C176.6596875 432.09634766 176.6596875 432.09634766 176.3125 433.21484375 C173.71465681 442.90263398 174.64603409 453.21608206 176.40390015 462.9647522 C179.96933924 482.78661749 179.53361412 502.67371838 179.39123535 522.73974609 C179.3694894 526.60431192 179.37030259 530.46873656 179.37151146 534.33335304 C179.37096246 538.12055293 179.35991513 541.90766527 179.34550858 545.69483566 C179.33925395 547.47182943 179.33522912 549.24883281 179.33372116 551.02583694 C179.31768106 560.02692976 179.07018856 568.95132962 178.16650391 577.91162109 C178.09770712 578.65288553 178.02891033 579.39414997 177.95802879 580.15787697 C177.46938652 584.45476664 176.52123281 587.47637725 174 591 C170.89918416 589.9619299 170.05177885 589.09077123 168.40234375 586.19921875 C162.74982879 572.64825622 160.12081181 559.50359939 159.70947266 544.84301758 C159.27856353 529.70266409 158.23665619 514.35529202 154.5 499.625 C149.91724323 481.24573336 149.43869766 461.84460955 149 443 C135.83628472 451.24952472 128.8525375 462.24842265 122 476 C121.51958252 476.93239502 121.03916504 477.86479004 120.54418945 478.82543945 C116.69247183 486.99003926 116.29031791 494.3731176 116.3125 503.3125 C116.29583738 505.93365754 116.271358 508.55477945 116.23828125 511.17578125 C116.23868408 512.31958252 116.23908691 513.46338379 116.23950195 514.6418457 C115.91644168 519.17160523 115.36125808 523.49289284 112.25 526.9375 C109.18415355 528.38526082 107.35602584 528.54792259 104 528 C100.89835231 525.44975635 99.27433584 523.82300753 98 520 C97.9030368 518.04362486 97.87021083 516.08377069 97.875 514.125 C97.87886719 512.38669922 97.87886719 512.38669922 97.8828125 510.61328125 C97.99551804 507.13819374 98.34872491 503.76428473 98.75 500.3125 C99.32377441 494.02393242 97.91140699 489.53542188 95 484 C90.44050192 485.49421754 87.05201256 488.07816948 83.375 491.0625 C82.76543457 491.55202148 82.15586914 492.04154297 81.52783203 492.54589844 C80.2823414 493.54735999 79.03867826 494.55109869 77.796875 495.55712891 C76.14073152 496.88699412 74.4668829 498.18832578 72.78125 499.48046875 C71.8221875 500.22941406 70.863125 500.97835938 69.875 501.75 C68.60269531 502.73226562 68.60269531 502.73226562 67.3046875 503.734375 C62.53677772 508.42147275 60.51489686 512.67866523 60.4453125 519.25366211 C60.46335937 520.03620361 60.48140625 520.81874512 60.5 521.625 C60.50773437 522.46748291 60.51546875 523.30996582 60.5234375 524.17797852 C60.75978128 533.3880002 62.13043304 542.47175583 63.57617188 551.55908203 C67.1089831 574.28662472 67.1089831 574.28662472 62 584 C59.84753983 586.59862838 59.03301573 586.99082896 55.625 587.9375 C52 588 52 588 49.25 586.625 C43.1447936 579.50225921 43.53717926 570.95137388 44 562 C44.23069622 559.00479412 44.49863263 556.01488476 44.7734375 553.0234375 C45.52530614 542.98988007 44.84010769 533.00628261 44 523 C42.88818359 524.07314453 42.88818359 524.07314453 41.75390625 525.16796875 C35.49623294 531.12068525 29.05143085 536.69111094 22.1875 541.9375 C21.14928101 542.73353638 21.14928101 542.73353638 20.09008789 543.5456543 C8.94834449 551.95012979 0.85767194 555.98776619 -13.44140625 554.6640625 C-23.27333477 552.82934477 -31.0212918 546.67693134 -39 541 C-38.98428955 542.11858398 -38.9685791 543.23716797 -38.95239258 544.38964844 C-38.8975295 548.59416318 -38.86344776 552.79864721 -38.83520508 557.00341797 C-38.82024551 558.81304265 -38.79987043 560.6226319 -38.77368164 562.43212891 C-38.40878057 588.31864021 -38.40878057 588.31864021 -45.6171875 598.61328125 C-47 600 -47 600 -49.9375 600.9375 C-54.9516263 599.40256338 -57.38660904 595.61592944 -60.06396484 591.27490234 C-61.2826559 588.31304441 -61.25641941 585.88046842 -61.2734375 582.6796875 C-61.29100098 581.4311499 -61.30856445 580.1826123 -61.32666016 578.89624023 C-61.33368958 578.23969452 -61.34071899 577.5831488 -61.34796143 576.90670776 C-61.51273429 564.52549593 -62.36939559 552.89829168 -66 541 C-66.25587891 540.1352002 -66.51175781 539.27040039 -66.77539062 538.37939453 C-72.80478091 518.26848324 -80.41079151 504.95858279 -99.1953125 494.609375 C-101.19817356 493.7309977 -101.19817356 493.7309977 -104 495 C-110.97015313 505.79649832 -112.35495317 517.31955806 -110.39453125 529.87890625 C-109.78103823 534.46167161 -110.62095618 538.50112222 -111.5 543 C-113.38672069 553.87457736 -112.8338952 564.30874153 -112.15527344 575.27490234 C-111.18361116 592.32788084 -110.79739093 613.99673867 -122 628 C-123.83837891 627.77612305 -123.83837891 627.77612305 -126 627 C-130.31099266 621.04611238 -132.14503464 613.77738639 -133.625 606.6875 C-133.8302832 605.73456055 -134.03556641 604.78162109 -134.24707031 603.79980469 C-137.16167669 589.8877229 -139.05174854 576.20426725 -139.453125 561.98828125 C-139.90734127 548.43480082 -140.89828159 534.95144849 -142 521.4375 C-142.35665928 516.99889459 -142.70992865 512.56002547 -143.0625 508.12109375 C-143.14722565 507.0684433 -143.23195129 506.01579285 -143.31924438 504.9312439 C-143.9146778 497.42875323 -144.36409592 489.92911908 -144.69287109 482.41040039 C-146.24950856 465.12529006 -160.8899214 452.99159203 -173.34375 442.4375 C-174.97276716 441.02363605 -176.49371717 439.54302144 -178 438 C-184.80607463 447.87284343 -186.97189116 457.30207982 -187.29003906 469.1953125 C-187.57246445 479.55740241 -188.33944186 489.4804737 -190.49365234 499.61669922 C-191.09349908 502.44008584 -191.66551191 505.26865481 -192.23828125 508.09765625 C-194.0092004 516.7717595 -195.78773909 525.42621464 -198 534 C-198.99 534 -199.98 534 -201 534 C-209.94878408 505.24578516 -210.70416046 473.43597699 -205.43676758 443.90478516 C-203.72959114 434.19749348 -203.4093721 424.8261196 -204 415 C-204.04769531 413.98421875 -204.09539062 412.9684375 -204.14453125 411.921875 C-204.89973349 405.19554038 -208.03171259 399.90732068 -211.26074219 394.09204102 C-234.70623145 351.28682479 -242.25223707 296.69968041 -229.375 249.5625 C-216.65980227 206.11588895 -185.99393881 162.41995986 -146 140 C-132.81753403 133.45140112 -132.81753403 133.45140112 -125 134 C-122.84765625 135.0168457 -122.84765625 135.0168457 -121 137 C-120.41011734 139.75538295 -120.07314492 142.19359515 -119.875 144.98046875 C-119.76671875 146.17604149 -119.76671875 146.17604149 -119.65625 147.39576721 C-119.50253396 149.10501958 -119.356631 150.81498914 -119.21777344 152.5255127 C-118.85352786 156.97792482 -118.42479797 161.42411743 -118 165.87109375 C-117.91733887 166.74887482 -117.83467773 167.62665588 -117.74951172 168.53103638 C-117.06690457 175.64756659 -116.17013359 182.6949535 -115 189.75 C-114.85820313 190.65000732 -114.71640625 191.55001465 -114.5703125 192.47729492 C-112.63076292 204.4295953 -112.63076292 204.4295953 -106 214 C-97.62423768 217.35030493 -90.68510806 214.95392756 -82.609375 211.5859375 C-67.63231881 204.50037953 -55.19557291 194.07418432 -43 183 C-42.22914063 182.30261719 -41.45828125 181.60523438 -40.6640625 180.88671875 C-7.97795225 149.73485449 8.16231983 99.32842302 9.31640625 55.140625 C9.37563089 51.92715533 9.40855876 48.71386333 9.4375 45.5 C9.44980652 44.72950317 9.46211304 43.95900635 9.47479248 43.16516113 C9.64328337 30.55154951 7.90886387 19.58271754 1.6875 8.375 C0.07421875 5.4609375 0.07421875 5.4609375 -1 3 C-0.67 2.01 -0.34 1.02 0 0 Z " fill="rgba(255,255,255,0.2)" transform="translate(235,0)"/>
</svg>
